<svg width="44" height="44" viewBox="0 0 44 44" fill="none" xmlns="http://www.w3.org/2000/svg">
<path d="M30.9591 28.5H17.0849L16.8411 29.475C16.3856 31.297 16.3856 33.203 16.8411 35.025L17.8349 39H30.1499L31.2569 34.0193C31.6615 32.201 31.5641 30.3069 30.9749 28.5398L30.9591 28.5ZM20.9999 31.5H17.9999V30H20.9999V31.5Z" fill="#AA8453"/>
<path d="M15.75 22.5H9C8.4578 22.501 7.92727 22.6575 7.4714 22.951C7.01554 23.2446 6.65349 23.6628 6.42825 24.156C6.231 24.5895 6.05325 25.032 5.88525 25.476L15.75 26.8853V22.5Z" fill="#AA8453"/>
<path d="M41.25 0H30.75C30.1533 0 29.581 0.237053 29.159 0.65901C28.7371 1.08097 28.5 1.65326 28.5 2.25V12.75C28.5 13.3467 28.7371 13.919 29.159 14.341C29.581 14.7629 30.1533 15 30.75 15H41.25C41.8467 15 42.419 14.7629 42.841 14.341C43.2629 13.919 43.5 13.3467 43.5 12.75V2.25C43.5 1.65326 43.2629 1.08097 42.841 0.65901C42.419 0.237053 41.8467 0 41.25 0ZM37.5 9H33.75V13.5H32.25V2.25C32.25 2.05109 32.329 1.86032 32.4697 1.71967C32.6103 1.57902 32.8011 1.5 33 1.5H37.5C38.4946 1.5 39.4484 1.89509 40.1517 2.59835C40.8549 3.30161 41.25 4.25544 41.25 5.25C41.25 6.24456 40.8549 7.19839 40.1517 7.90165C39.4484 8.60491 38.4946 9 37.5 9Z" fill="#AA8453"/>
<path d="M15.0001 32.25C15.0004 31.1924 15.1303 30.1388 15.3871 29.1128L15.5709 28.3748L2.9581 26.5725C2.73836 27.4545 2.57007 28.3485 2.4541 29.25H3.0001C3.59213 29.2496 4.17124 29.4231 4.66552 29.749C5.15979 30.0748 5.54745 30.5387 5.78035 31.083L7.2556 34.5255C8.42406 34.6408 9.52024 35.1441 10.3693 35.9551C11.2183 36.7661 11.7713 37.8381 11.9401 39H16.2901L15.3901 35.3873C15.1323 34.3614 15.0014 33.3078 15.0001 32.25Z" fill="#AA8453"/>
<path d="M32.4412 26.001C30.491 24.0536 28.3839 22.2701 26.1412 20.6685C25.0798 19.9072 23.8061 19.4985 22.4999 19.5H8.99991C8.02597 19.5015 7.07293 19.7825 6.25407 20.3098C5.43521 20.8371 4.78498 21.5884 4.38066 22.4745C3.99149 23.3346 3.6534 24.2169 3.36816 25.1168L4.37016 25.2593C4.57941 24.6788 4.80666 24.0998 5.06316 23.5343C5.40807 22.7794 5.96233 22.1394 6.66014 21.6902C7.35796 21.241 8.17001 21.0014 8.99991 21H22.4999C23.651 20.9979 24.7736 21.3576 25.7092 22.0283C27.8059 23.5288 29.7819 25.1911 31.6192 27H33.4394L32.4412 26.001Z" fill="#AA8453"/>
<path d="M5.66175 34.6148L4.40175 31.674C4.28425 31.3996 4.08877 31.1658 3.83958 31.0016C3.59039 30.8373 3.29846 30.7498 3 30.75H2.30625C2.2725 31.2683 2.25 31.7888 2.25 32.3123V34.5C2.25 34.6989 2.17098 34.8897 2.03033 35.0303C1.88968 35.171 1.69891 35.25 1.5 35.25C1.10218 35.25 0.720644 35.408 0.43934 35.6893C0.158035 35.9706 0 36.3522 0 36.75C0.00103875 37.2109 0.161181 37.6572 0.453353 38.0136C0.745525 38.37 1.1518 38.6146 1.6035 38.706C1.80901 37.7034 2.30233 36.7824 3.0231 36.0558C3.74387 35.3291 4.66082 34.8284 5.66175 34.6148Z" fill="#AA8453"/>
<path d="M6.75 40.5C7.16421 40.5 7.5 40.1642 7.5 39.75C7.5 39.3358 7.16421 39 6.75 39C6.33579 39 6 39.3358 6 39.75C6 40.1642 6.33579 40.5 6.75 40.5Z" fill="#AA8453"/>
<path d="M6.75 36C6.00832 36 5.2833 36.2199 4.66661 36.632C4.04993 37.044 3.56928 37.6297 3.28545 38.3149C3.00162 39.0002 2.92736 39.7542 3.07206 40.4816C3.21675 41.209 3.5739 41.8772 4.09835 42.4017C4.6228 42.9261 5.29098 43.2833 6.01841 43.4279C6.74584 43.5726 7.49984 43.4984 8.18506 43.2145C8.87029 42.9307 9.45596 42.4501 9.86801 41.8334C10.2801 41.2167 10.5 40.4917 10.5 39.75C10.4988 38.7558 10.1033 37.8027 9.40034 37.0997C8.69733 36.3967 7.7442 36.0012 6.75 36ZM6.75 42C6.30499 42 5.86998 41.868 5.49997 41.6208C5.12996 41.3736 4.84157 41.0222 4.67127 40.611C4.50098 40.1999 4.45642 39.7475 4.54323 39.311C4.63005 38.8746 4.84434 38.4737 5.15901 38.159C5.47368 37.8443 5.87459 37.63 6.31105 37.5432C6.74751 37.4564 7.19991 37.501 7.61104 37.6713C8.02217 37.8416 8.37358 38.13 8.62081 38.5C8.86804 38.87 9 39.305 9 39.75C9 40.3467 8.76295 40.919 8.34099 41.341C7.91904 41.7629 7.34674 42 6.75 42Z" fill="#AA8453"/>
<path d="M24.8378 23.25C24.1565 22.761 23.3386 22.4986 22.5 22.5H17.25V27H29.4487C27.991 25.6556 26.4511 24.4031 24.8378 23.25Z" fill="#AA8453"/>
<path d="M36.75 40.5C37.1642 40.5 37.5 40.1642 37.5 39.75C37.5 39.3358 37.1642 39 36.75 39C36.3358 39 36 39.3358 36 39.75C36 40.1642 36.3358 40.5 36.75 40.5Z" fill="#AA8453"/>
<path d="M42.996 33.7501C42.6121 32.7115 42.0176 31.7634 41.25 30.9653V32.2501C41.25 32.6479 41.408 33.0294 41.6893 33.3107C41.9706 33.592 42.3522 33.7501 42.75 33.7501H42.996Z" fill="#AA8453"/>
<path d="M42.7499 35.25C41.9543 35.25 41.1912 34.9339 40.6286 34.3713C40.066 33.8087 39.7499 33.0456 39.7499 32.25V29.7443C38.4722 28.9316 36.9892 28.4999 35.4749 28.5H32.5214C33.0838 30.3997 33.1517 32.4115 32.7187 34.3447L32.0249 37.4835C32.5029 36.4821 33.2864 35.6583 34.2624 35.1306C35.2385 34.6029 36.3569 34.3985 37.4565 34.547C38.5561 34.6954 39.5803 35.1889 40.3815 35.9566C41.1828 36.7242 41.7197 37.7262 41.9152 38.8185C42.3822 38.6443 42.7846 38.331 43.068 37.9209C43.3514 37.5107 43.5022 37.0235 43.4999 36.525C43.497 36.0977 43.4599 35.6714 43.3889 35.25H42.7499Z" fill="#AA8453"/>
<path d="M37.5 3H33.75V7.5H37.5C38.0967 7.5 38.669 7.26295 39.091 6.84099C39.5129 6.41903 39.75 5.84674 39.75 5.25C39.75 4.65326 39.5129 4.08097 39.091 3.65901C38.669 3.23705 38.0967 3 37.5 3Z" fill="#AA8453"/>
<path d="M36.75 27.0938V16.5H35.25V26.6887L35.5613 27C35.9591 27.0065 36.3561 27.0378 36.75 27.0938Z" fill="#AA8453"/>
<path d="M36.75 36C36.0083 36 35.2833 36.2199 34.6666 36.632C34.0499 37.044 33.5693 37.6297 33.2855 38.3149C33.0016 39.0002 32.9274 39.7542 33.0721 40.4816C33.2168 41.209 33.5739 41.8772 34.0984 42.4017C34.6228 42.9261 35.291 43.2833 36.0184 43.4279C36.7458 43.5726 37.4998 43.4984 38.1851 43.2145C38.8703 42.9307 39.456 42.4501 39.868 41.8334C40.2801 41.2167 40.5 40.4917 40.5 39.75C40.4988 38.7558 40.1033 37.8027 39.4003 37.0997C38.6973 36.3967 37.7442 36.0012 36.75 36ZM36.75 42C36.305 42 35.87 41.868 35.5 41.6208C35.13 41.3736 34.8416 41.0222 34.6713 40.611C34.501 40.1999 34.4564 39.7475 34.5432 39.311C34.6301 38.8746 34.8443 38.4737 35.159 38.159C35.4737 37.8443 35.8746 37.63 36.311 37.5432C36.7475 37.4564 37.1999 37.501 37.611 37.6713C38.0222 37.8416 38.3736 38.13 38.6208 38.5C38.868 38.87 39 39.305 39 39.75C39 40.3467 38.7629 40.919 38.341 41.341C37.919 41.7629 37.3467 42 36.75 42Z" fill="#AA8453"/>
</svg>
