<svg width="48" height="46" viewBox="0 0 48 46" fill="none" xmlns="http://www.w3.org/2000/svg">
<path d="M21.0228 18.1123C20.4735 18.6616 20.4735 19.5516 21.0228 20.1008C21.5721 20.6501 22.4621 20.6501 23.0113 20.1008C23.1665 19.947 23.5002 19.6875 24.0001 19.6875C24.5 19.6875 24.8337 19.9471 24.9889 20.1008C25.5382 20.6501 26.428 20.6502 26.9774 20.1008C27.5267 19.5516 27.5267 18.6616 26.9774 18.1123C26.516 17.6496 25.5148 16.875 24.0001 16.875C22.4854 16.875 21.4842 17.6496 21.0228 18.1123Z" fill="white"/>
<path d="M24 0C18.3668 0 13.0686 2.19731 9.08335 6.18534C8.53407 6.73462 8.53407 7.62591 9.08335 8.17387C9.63263 8.72316 10.5226 8.72316 11.0719 8.17387C14.527 4.71591 19.118 2.8125 24 2.8125C28.882 2.8125 33.473 4.71591 36.9281 8.17387C37.4774 8.72316 38.3673 8.72325 38.9167 8.17387C39.4659 7.62591 39.4659 6.73462 38.9167 6.18534C34.9314 2.19731 29.6333 0 24 0Z" fill="white"/>
<path d="M34.9368 12.1495C35.4861 11.6016 35.4861 10.7103 34.9368 10.161C32.0145 7.23591 28.1309 5.625 24 5.625C19.8691 5.625 15.9855 7.23591 13.0631 10.161C12.5138 10.7103 12.5138 11.6016 13.0631 12.1495C13.6124 12.6988 14.5023 12.6988 15.0516 12.1495C17.4438 9.75591 20.6203 8.4375 24 8.4375C27.3796 8.4375 30.5561 9.75591 32.9483 12.1495C33.4976 12.6988 34.3876 12.6988 34.9368 12.1495Z" fill="white"/>
<path d="M30.957 16.1252C31.5063 15.5772 31.5063 14.6859 30.957 14.1367C27.2381 10.4151 20.7617 10.4151 17.0428 14.1367C16.4935 14.6859 16.4935 15.5772 17.0428 16.1252C17.5921 16.6745 18.4821 16.6745 19.0314 16.1252C21.69 13.4637 26.3098 13.4637 28.9685 16.1252C29.5178 16.6745 30.4076 16.6745 30.957 16.1252Z" fill="white"/>
<path d="M43.7812 25.3125H4.21875C1.89244 25.3125 0 27.2049 0 29.5312V37.9688C0 40.2951 1.89244 42.1875 4.21875 42.1875H5.625V43.6875C5.625 44.4648 6.25397 45.0938 7.03125 45.0938C7.80853 45.0938 8.4375 44.4648 8.4375 43.6875V42.1875H39.5625V43.6875C39.5625 44.4648 40.1915 45.0938 40.9688 45.0938C41.746 45.0938 42.375 44.4648 42.375 43.6875V42.1875H43.7812C46.1076 42.1875 48 40.2951 48 37.9688V29.5312C48 27.2049 46.1076 25.3125 43.7812 25.3125ZM31.125 35.1562C31.125 35.9335 30.496 36.5625 29.7188 36.5625C28.9415 36.5625 28.3125 35.9335 28.3125 35.1562V32.3438C28.3125 31.5665 28.9415 30.9375 29.7188 30.9375C30.496 30.9375 31.125 31.5665 31.125 32.3438V35.1562ZM36.75 35.1562C36.75 35.9335 36.121 36.5625 35.3438 36.5625C34.5665 36.5625 33.9375 35.9335 33.9375 35.1562V32.3438C33.9375 31.5665 34.5665 30.9375 35.3438 30.9375C36.121 30.9375 36.75 31.5665 36.75 32.3438V35.1562ZM42.375 35.1562C42.375 35.9335 41.746 36.5625 40.9688 36.5625C40.1915 36.5625 39.5625 35.9335 39.5625 35.1562V32.3438C39.5625 31.5665 40.1915 30.9375 40.9688 30.9375C41.746 30.9375 42.375 31.5665 42.375 32.3438V35.1562Z" fill="white"/>
<path d="M0.946567 5.73892C0.232379 6.0451 -0.0985583 6.87188 0.207723 7.58457L6.60007 22.4999H9.65894L2.79222 6.47776C2.48604 5.76085 1.651 5.42851 0.946567 5.73892Z" fill="white"/>
<path d="M41.3998 22.5001L47.7922 7.58474C48.0985 6.87195 47.7674 6.04527 47.0533 5.73899C46.3434 5.43139 45.5139 5.76233 45.2076 6.47783L38.3411 22.5001H41.3998Z" fill="white"/>
</svg>
