<svg width="47" height="44" viewBox="0 0 47 44" fill="none" xmlns="http://www.w3.org/2000/svg">
<path d="M22.7296 42.8199C23.5248 42.8199 24.1696 42.1752 24.1696 41.3799C24.1696 40.5847 23.5248 39.9399 22.7296 39.9399C21.9343 39.9399 21.2896 40.5847 21.2896 41.3799C21.2896 42.1752 21.9343 42.8199 22.7296 42.8199Z" fill="#AA8453"/>
<path d="M42.9097 42.8199C43.705 42.8199 44.3497 42.1752 44.3497 41.3799C44.3497 40.5847 43.705 39.9399 42.9097 39.9399C42.1144 39.9399 41.4697 40.5847 41.4697 41.3799C41.4697 42.1752 42.1144 42.8199 42.9097 42.8199Z" fill="#AA8453"/>
<path d="M41.7545 29.7996H24.0809C23.6201 29.7996 23.2361 30.174 23.2361 30.6444V35.6364C23.2361 36.1069 23.6201 36.4812 24.0809 36.4812H41.7545C42.2249 36.4812 42.5993 36.1068 42.5993 35.6364V30.6444C42.5993 30.174 42.2249 29.7996 41.7545 29.7996ZM35.8409 33.726C35.8409 34.5228 35.1977 35.166 34.4009 35.166H31.4345C30.6473 35.166 29.9945 34.5228 29.9945 33.726V32.286H30.7145V33.726C30.7145 34.1196 31.0409 34.446 31.4345 34.446H34.4009C34.7945 34.446 35.1209 34.1196 35.1209 33.726V32.286H35.8409V33.726ZM41.5049 31.566H39.7673V32.7084H38.9321V31.566H26.9129V32.7084H26.0682V31.566H24.3402V31.1148H41.505L41.5049 31.566Z" fill="#AA8453"/>
<path d="M23.2361 22.9244V27.9164C23.2361 28.3869 23.6201 28.7612 24.0809 28.7612H41.7545C42.2249 28.7612 42.5993 28.3868 42.5993 27.9164V22.9244C42.5993 22.454 42.2249 22.0796 41.7545 22.0796H24.0809C23.62 22.0796 23.2361 22.454 23.2361 22.9244ZM35.8409 26.006C35.8409 26.8028 35.1977 27.446 34.4009 27.446H31.4345C30.6473 27.446 29.9945 26.8028 29.9945 26.006V24.566H30.7145V26.006C30.7145 26.3996 31.0409 26.726 31.4345 26.726H34.4009C34.7945 26.726 35.1209 26.3996 35.1209 26.006V24.566H35.8409V26.006ZM24.34 23.3948H41.5048V23.846H39.7672V24.9884H38.932V23.846H26.9128V24.9884H26.0681V23.846H24.3401L24.34 23.3948Z" fill="#AA8453"/>
<path d="M31.1292 21.0594H39.8892C40.0935 21.0594 40.2591 20.8938 40.2591 20.6895V17.3295C40.2591 17.1252 40.0935 16.9595 39.8892 16.9595H31.1292C30.9249 16.9595 30.7592 17.1251 30.7592 17.3295V18.4794H28.8992V19.5395H30.7592V20.6895C30.7593 20.8938 30.9249 21.0594 31.1292 21.0594Z" fill="#AA8453"/>
<path d="M44.5144 37.2588V16.1964C44.5144 10.3117 40.0504 5.45414 34.2904 4.70525V3.63965H31.3528V4.69565C25.5257 5.37725 20.9944 10.2732 20.9944 16.1964V18.2124C21.1768 18.174 21.3496 18.1548 21.5416 18.1548C21.676 18.1548 21.82 18.1644 21.9544 18.1932V16.1964C21.9544 10.3212 26.8024 5.55005 32.7544 5.55005C38.716 5.55005 43.5544 10.3212 43.5544 16.1964V37.2588H21.9544V23.8956C21.628 23.9628 21.3112 24.03 20.9944 24.078V37.2588H19.5544V38.9196H46.0792V37.2588H44.5144Z" fill="#AA8453"/>
<path d="M32.8193 2.64C33.5483 2.64 34.1393 2.04902 34.1393 1.32C34.1393 0.590984 33.5483 0 32.8193 0C32.0903 0 31.4993 0.590984 31.4993 1.32C31.4993 2.04902 32.0903 2.64 32.8193 2.64Z" fill="#AA8453"/>
<path d="M10.0889 22.7339C10.0793 22.7339 10.0793 22.7243 10.0697 22.7243C7.43925 20.9867 6.86325 18.6443 6.77685 18.1931C6.46965 16.6283 7.48725 15.1211 9.05205 14.8139C9.23445 14.7755 9.41685 14.7562 9.59925 14.7562C10.9433 14.7562 12.1241 15.7067 12.4121 17.0218C12.4121 17.0218 12.4409 17.089 12.4985 17.185C12.4409 16.2538 11.9897 15.3514 11.1929 14.737C9.72405 13.6042 7.62165 13.873 6.47925 15.3418C1.18965 22.1962 3.43605 29.1754 3.53205 29.473C3.76428 30.1648 4.20338 30.731 4.75605 31.1289C4.33499 34.7136 1.58556 39.2463 0.371443 40.9032C-0.254765 41.7582 -0.0705407 42.9596 0.783475 43.5868C1.64085 44.2155 2.84191 44.0266 3.4661 43.1767C4.01032 42.4365 7.58594 37.4223 8.46108 32.3664C9.65733 34.2536 10.8742 37.2682 11.349 41.9917C11.455 43.0464 12.3897 43.8194 13.4513 43.7098C14.506 43.6038 15.2757 42.6626 15.1693 41.6075C14.4465 34.4131 12.0761 30.387 10.0595 28.2064C10.0034 27.2462 9.20133 25.6564 10.0889 22.7339Z" fill="#AA8453"/>
<path d="M23.4152 20.6312C23.1897 19.5948 22.1627 18.9368 21.131 19.1636C12.6705 21.0057 11.5399 17.4625 11.4743 17.2262C11.2507 16.2119 10.2578 15.5575 9.23266 15.7548C8.19154 15.9578 7.51186 16.9656 7.71442 18.0062C7.76079 18.2434 8.2333 20.3664 10.5996 21.9241C13.7826 24.0188 18.2123 23.7292 21.9476 22.9155C22.984 22.69 23.6407 21.6672 23.4152 20.6312Z" fill="#AA8453"/>
<path d="M12.4796 12.2794C14.6004 12.2794 16.3196 10.5601 16.3196 8.43937C16.3196 6.31859 14.6004 4.59937 12.4796 4.59937C10.3589 4.59937 8.63965 6.31859 8.63965 8.43937C8.63965 10.5601 10.3589 12.2794 12.4796 12.2794Z" fill="#AA8453"/>
</svg>
