<svg width="48" height="48" viewBox="0 0 48 48" fill="none" xmlns="http://www.w3.org/2000/svg">
<g clip-path="url(#clip0_1_595)">
<path d="M32.8368 3.05513C30.2912 1.05647 27.2356 0 24 0C20.7644 0 17.7087 1.05647 15.1631 3.05513C14.5522 3.53475 14.4459 4.41872 14.9255 5.02959C15.4051 5.64047 16.2891 5.74669 16.9 5.26725C18.9453 3.66131 21.4004 2.8125 24 2.8125C26.5996 2.8125 29.0547 3.66131 31.0998 5.26725C31.3574 5.46947 31.6635 5.56753 31.9674 5.56753C32.3842 5.56753 32.797 5.38303 33.0744 5.02969C33.554 4.41881 33.4476 3.53484 32.8368 3.05513Z" fill="white"/>
<path d="M30.0903 8.11425C28.4518 6.50906 26.2889 5.625 24 5.625C21.7112 5.625 19.5484 6.50897 17.9097 8.11416C17.3549 8.65763 17.3457 9.54797 17.8893 10.1028C18.4328 10.6576 19.3231 10.6668 19.8779 10.1233C20.9876 9.03619 22.4515 8.4375 24 8.4375C25.5486 8.4375 27.0125 9.03619 28.1221 10.1233C28.3958 10.3914 28.7511 10.525 29.1061 10.525C29.4709 10.525 29.8353 10.384 30.1107 10.103C30.6542 9.54816 30.6451 8.65781 30.0903 8.11425Z" fill="white"/>
<path d="M24.7221 11.4506C24.1429 11.1087 23.368 11.2274 22.9311 11.743C22.558 12.1833 22.4883 12.8328 22.7718 13.3374C23.0431 13.8202 23.5916 14.1135 24.1444 14.0548C24.6812 13.9977 25.1554 13.6186 25.3305 13.1081C25.5406 12.4951 25.2812 11.7806 24.7221 11.4506Z" fill="white"/>
<path d="M45.1156 16.8206H2.8844C1.33359 16.8206 0.0718994 18.0822 0.0718994 19.6331V21.9768H47.9282V19.6331C47.9281 18.0822 46.6664 16.8206 45.1156 16.8206Z" fill="white"/>
<path d="M16.9684 33.6213C15.6608 33.6213 14.597 34.6851 14.597 35.9927C14.597 37.3002 15.6608 38.364 16.9684 38.364C18.2759 38.364 19.3397 37.3002 19.3397 35.9927C19.3397 34.6851 18.2759 33.6213 16.9684 33.6213Z" fill="white"/>
<path d="M0.0718994 24.7893V45.1876C0.0718994 46.7384 1.33359 48.0001 2.8844 48.0001H45.1157C46.6665 48.0001 47.9282 46.7384 47.9282 45.1876V24.7893H0.0718994ZM34.8092 37.3989H21.9567C21.3421 39.5758 19.3393 41.1764 16.9684 41.1764C14.11 41.1764 11.7846 38.851 11.7846 35.9926C11.7846 33.1343 14.11 30.8088 16.9684 30.8088C19.3393 30.8088 21.3422 32.4094 21.9567 34.5864H26.2878V33.3863C26.2878 32.6096 26.9174 31.98 27.694 31.98C28.4707 31.98 29.1003 32.6096 29.1003 33.3863V34.5864H31.9128V32.4488C31.9128 31.6721 32.5424 31.0425 33.319 31.0425C34.0956 31.0425 34.7253 31.6721 34.7253 32.4488V34.5864H34.8092C35.5858 34.5864 36.2154 35.216 36.2154 35.9926C36.2154 36.7692 35.5858 37.3989 34.8092 37.3989Z" fill="white"/>
</g>
<defs>
<clipPath id="clip0_1_595">
<rect width="48" height="48" fill="white"/>
</clipPath>
</defs>
</svg>
