<svg width="45" height="45" viewBox="0 0 45 45" fill="none" xmlns="http://www.w3.org/2000/svg">
<path d="M23.2 11.1987H0.8C0.358172 11.1987 0 11.5569 0 11.9987V12.7987C0 13.2406 0.358172 13.5987 0.8 13.5987H23.2C23.6418 13.5987 24 13.2406 24 12.7987V11.9987C24 11.5569 23.6418 11.1987 23.2 11.1987Z" fill="#AA8453"/>
<path d="M21.3262 8.44118C21.2603 8.30797 21.1583 8.1959 21.0319 8.1177C20.9055 8.03951 20.7597 7.99831 20.611 7.99878H3.38864C3.23999 7.99831 3.09419 8.03951 2.96777 8.1177C2.84135 8.1959 2.73939 8.30797 2.67344 8.44118L2.09424 9.59878H21.9054L21.3262 8.44118Z" fill="#AA8453"/>
<path d="M5.42406 44.7987H16.5809C15.8963 44.2002 15.3476 43.4623 14.9715 42.6345C14.5954 41.8067 14.4006 40.908 14.4001 39.9987V39.1987C14.4013 38.8492 14.4793 38.5042 14.6286 38.1882C14.7779 37.8722 14.9948 37.5928 15.2641 37.3699C14.7074 36.7809 14.3981 36.0007 14.4001 35.1903C14.402 34.3798 14.715 33.6011 15.2745 33.0147C15.03 32.8185 14.8275 32.5752 14.6788 32.2993C14.5301 32.0234 14.4383 31.7204 14.4089 31.4083C14.3812 31.0809 14.4219 30.7514 14.5283 30.4405C14.6348 30.1297 14.8047 29.8444 15.0273 29.6027C14.6256 29.1649 14.4019 28.5929 14.4001 27.9987C14.404 25.7086 15.1632 23.4838 16.5599 21.6689C17.9566 19.8541 19.9129 18.5505 22.1257 17.9603L22.3369 15.1987H1.66406L3.82966 43.3211C3.86212 43.7223 4.04393 44.0968 4.33917 44.3704C4.6344 44.644 5.02155 44.7968 5.42406 44.7987Z" fill="#AA8453"/>
<path d="M44.8 39.1987C44.8 38.9865 44.7157 38.783 44.5657 38.633C44.4157 38.483 44.2122 38.3987 44 38.3987H16.8C16.5878 38.3987 16.3843 38.483 16.2343 38.633C16.0843 38.783 16 38.9865 16 39.1987V39.9987C16.0013 41.2713 16.5074 42.4915 17.4073 43.3914C18.3072 44.2913 19.5274 44.7974 20.8 44.7987H40C41.2726 44.7974 42.4928 44.2913 43.3927 43.3914C44.2926 42.4915 44.7987 41.2713 44.8 39.9987V39.1987Z" fill="#AA8453"/>
<path d="M12.8 6.39858V2.07858C12.7999 1.90483 12.7433 1.73583 12.6386 1.59713C12.534 1.45843 12.387 1.35756 12.22 1.30978L7.67997 0.0105808C7.60383 -0.0100793 7.52263 -0.000245598 7.45362 0.0379938C7.38461 0.0762331 7.33322 0.139866 7.31037 0.215381L7.03517 1.17938C7.01368 1.25565 7.02324 1.33733 7.06176 1.40657C7.10028 1.47582 7.16463 1.52702 7.24077 1.54898L10.624 2.51538C10.7903 2.56389 10.9363 2.66506 11.0402 2.8037C11.1441 2.94234 11.2001 3.11095 11.2 3.28418V6.39858H12.8Z" fill="#AA8453"/>
<path d="M43.2 33.5986H40.7344C40.4403 33.5991 40.155 33.6989 39.9248 33.8818L37.8032 35.5762C37.4622 35.8503 37.0379 35.9997 36.6004 35.9997C36.1629 35.9997 35.7386 35.8503 35.3976 35.5762L33.2752 33.881C33.0449 33.6984 32.7596 33.5989 32.4656 33.5986H17.6C17.1757 33.5986 16.7687 33.7672 16.4686 34.0673C16.1686 34.3673 16 34.7743 16 35.1986C16 35.623 16.1686 36.0299 16.4686 36.33C16.7687 36.6301 17.1757 36.7986 17.6 36.7986H43.2C43.6243 36.7986 44.0313 36.6301 44.3314 36.33C44.6314 36.0299 44.8 35.623 44.8 35.1986C44.8 34.7743 44.6314 34.3673 44.3314 34.0673C44.0313 33.7672 43.6243 33.5986 43.2 33.5986Z" fill="#AA8453"/>
<path d="M36 19.1987H24.8C22.4669 19.2015 20.2302 20.1295 18.5805 21.7792C16.9308 23.429 16.0028 25.6657 16 27.9987C16 28.2109 16.0843 28.4144 16.2343 28.5644C16.3843 28.7144 16.5878 28.7987 16.8 28.7987H44C44.2122 28.7987 44.4157 28.7144 44.5657 28.5644C44.7157 28.4144 44.8 28.2109 44.8 27.9987C44.7972 25.6657 43.8692 23.429 42.2195 21.7792C40.5698 20.1295 38.3331 19.2015 36 19.1987ZM24.8 25.5987H24C23.7878 25.5987 23.5843 25.5144 23.4343 25.3644C23.2843 25.2144 23.2 25.0109 23.2 24.7987C23.2 24.5866 23.2843 24.3831 23.4343 24.233C23.5843 24.083 23.7878 23.9987 24 23.9987H24.8C25.0122 23.9987 25.2157 24.083 25.3657 24.233C25.5157 24.3831 25.6 24.5866 25.6 24.7987C25.6 25.0109 25.5157 25.2144 25.3657 25.3644C25.2157 25.5144 25.0122 25.5987 24.8 25.5987ZM27.2 22.3987H26.4C26.1878 22.3987 25.9843 22.3144 25.8343 22.1644C25.6843 22.0144 25.6 21.8109 25.6 21.5987C25.6 21.3866 25.6843 21.1831 25.8343 21.033C25.9843 20.883 26.1878 20.7987 26.4 20.7987H27.2C27.4122 20.7987 27.6157 20.883 27.7657 21.033C27.9157 21.1831 28 21.3866 28 21.5987C28 21.8109 27.9157 22.0144 27.7657 22.1644C27.6157 22.3144 27.4122 22.3987 27.2 22.3987ZM32 24.7987H31.2C30.9878 24.7987 30.7843 24.7144 30.6343 24.5644C30.4843 24.4144 30.4 24.2109 30.4 23.9987C30.4 23.7866 30.4843 23.5831 30.6343 23.433C30.7843 23.283 30.9878 23.1987 31.2 23.1987H32C32.2122 23.1987 32.4157 23.283 32.5657 23.433C32.7157 23.5831 32.8 23.7866 32.8 23.9987C32.8 24.2109 32.7157 24.4144 32.5657 24.5644C32.4157 24.7144 32.2122 24.7987 32 24.7987Z" fill="#AA8453"/>
<path d="M16.7999 30.3987C16.6967 30.3979 16.5944 30.4178 16.4991 30.4572C16.4037 30.4967 16.3172 30.5548 16.2447 30.6283C16.1583 30.7104 16.0918 30.8112 16.0502 30.9229C16.0086 31.0347 15.9931 31.1544 16.0047 31.2731C16.0387 31.4809 16.1473 31.6693 16.3101 31.8029C16.473 31.9365 16.679 32.0061 16.8895 31.9987H32.4655C33.1225 31.9996 33.7597 32.223 34.2735 32.6323L36.3951 34.3259C36.4534 34.3724 36.5258 34.3977 36.6003 34.3977C36.6749 34.3977 36.7473 34.3724 36.8055 34.3259L38.9263 32.6331C39.4401 32.2235 40.0773 31.9999 40.7343 31.9987H43.9999C44.103 31.9996 44.2053 31.9798 44.3005 31.9403C44.3958 31.9009 44.4821 31.8426 44.5543 31.7691C44.6401 31.6875 44.7063 31.5875 44.7478 31.4766C44.7894 31.3658 44.8053 31.2469 44.7943 31.1291C44.7613 30.9205 44.6532 30.7312 44.4905 30.5967C44.3277 30.4622 44.1214 30.3918 43.9103 30.3987H16.7999Z" fill="#AA8453"/>
</svg>
