<svg width="48" height="38" viewBox="0 0 48 38" fill="none" xmlns="http://www.w3.org/2000/svg">
<path d="M16.7627 28.9612C17.3674 29.3757 17.5712 29.5153 18.246 29.5153C18.9208 29.5153 19.1245 29.3757 19.7292 28.9612C20.5528 28.3968 21.7974 27.5437 23.9993 27.5437C26.2013 27.5437 27.4458 28.3967 28.2694 28.9612C28.8742 29.3757 29.078 29.5153 29.7528 29.5153C30.4277 29.5153 30.6315 29.3757 31.2363 28.9611C31.8532 28.5383 32.7065 27.9535 34.0215 27.6867L30.1561 20.5433L33.3907 11.6996L41.5893 4.66473C42.7008 3.71092 42.8287 2.03662 41.8749 0.925081C40.921 -0.186462 39.2468 -0.314374 38.1353 0.639435L29.411 8.12549C29.0664 8.42126 28.8033 8.80069 28.6474 9.22719L24.6888 20.0498L24.6688 20.1094L10.4456 27.8273C11.0187 27.6567 11.6921 27.5437 12.4926 27.5437C14.6945 27.5437 15.9391 28.3968 16.7627 28.9612Z" fill="white"/>
<path d="M38.5713 24.8723C41.4992 24.5423 43.6054 21.9013 43.2755 18.9733C42.9456 16.0453 40.3045 13.9392 37.3765 14.2691C34.4486 14.599 32.3424 17.2401 32.6723 20.168C33.0022 23.096 35.6433 25.2022 38.5713 24.8723Z" fill="white"/>
<path d="M3.30509 31.8074C4.05812 32.3235 4.99542 32.9659 6.73912 32.9659C8.48291 32.9659 9.42012 32.3235 10.1731 31.8074C10.8361 31.353 11.3596 30.9942 12.4926 30.9942C13.6256 30.9942 14.1491 31.353 14.8119 31.8074C15.5651 32.3235 16.5023 32.9659 18.2461 32.9659C19.9898 32.9659 20.927 32.3235 21.68 31.8074C22.3428 31.353 22.8664 30.9942 23.9993 30.9942C25.1322 30.9942 25.6558 31.3531 26.3187 31.8074C27.0717 32.3235 28.009 32.9659 29.7527 32.9659C31.4965 32.9659 32.4338 32.3235 33.1868 31.8074C33.8498 31.353 34.3733 30.9942 35.5063 30.9942C36.6394 30.9942 37.163 31.3531 37.826 31.8075C38.5791 32.3236 39.5164 32.9659 41.2603 32.9659C43.0042 32.9659 43.9415 32.3235 44.6945 31.8075C45.3574 31.3531 45.8811 30.9942 47.0142 30.9942C47.5587 30.9942 48.0001 30.5528 48.0001 30.0083C48.0001 29.4639 47.5587 29.0225 47.0142 29.0225C45.2703 29.0225 44.333 29.6648 43.5799 30.1809C42.917 30.6352 42.3933 30.9941 41.2603 30.9941C40.1272 30.9941 39.6036 30.6352 38.9406 30.1809C38.1875 29.6647 37.2502 29.0225 35.5063 29.0225C33.7625 29.0225 32.8252 29.6648 32.0722 30.1809C31.4093 30.6352 30.8857 30.9941 29.7527 30.9941C28.6198 30.9941 28.0962 30.6352 27.4333 30.181C26.6803 29.6648 25.743 29.0225 23.9993 29.0225C22.2556 29.0225 21.3183 29.6648 20.5653 30.181C19.9024 30.6353 19.3789 30.9941 18.2461 30.9941C17.1131 30.9941 16.5896 30.6352 15.9267 30.181C15.1736 29.6648 14.2364 29.0225 12.4926 29.0225C10.7488 29.0225 9.81154 29.6648 9.05851 30.181C8.3956 30.6353 7.87204 30.9941 6.73912 30.9941C5.60619 30.9941 5.08264 30.6353 4.41991 30.181C3.66688 29.6648 2.72958 29.0225 0.985881 29.0225C0.44141 29.0225 0 29.4639 0 30.0083C0 30.5528 0.44141 30.9942 0.985881 30.9942C2.1188 30.9941 2.64227 31.353 3.30509 31.8074Z" fill="white"/>
<path d="M33.1868 36.7366C32.4338 37.2527 31.4965 37.8951 29.7527 37.8951C28.0089 37.8951 27.0717 37.2527 26.3187 36.7366C25.6558 36.2822 25.1322 35.9234 23.9993 35.9234C22.8664 35.9234 22.3428 36.2822 21.68 36.7366C20.927 37.2527 19.9898 37.8951 18.2461 37.8951C16.5023 37.8951 15.5651 37.2527 14.8119 36.7366C14.1491 36.2822 13.6256 35.9234 12.4926 35.9234C11.3597 35.9234 10.8361 36.2823 10.1731 36.7366C9.42012 37.2527 8.48281 37.8951 6.73912 37.8951C3.55735 37.8951 3.39108 35.9234 0.985881 35.9234C0.44141 35.9234 0 35.482 0 34.9375C0 34.3931 0.44141 33.9517 0.985881 33.9517C4.16765 33.9517 4.33392 35.9233 6.73912 35.9233C9.09274 35.9233 9.3496 33.9517 12.4926 33.9517C14.2364 33.9517 15.1736 34.594 15.9267 35.1102C16.5896 35.5645 17.1131 35.9233 18.2461 35.9233C19.3789 35.9233 19.9024 35.5645 20.5653 35.1102C21.3183 34.594 22.2555 33.9517 23.9993 33.9517C25.7431 33.9517 26.6803 34.594 27.4333 35.1102C28.0962 35.5645 28.6198 35.9233 29.7527 35.9233C30.8857 35.9233 31.4093 35.5644 32.0722 35.1101C32.8252 34.5939 33.7625 33.9517 35.5063 33.9517C37.2502 33.9517 38.1875 34.594 38.9406 35.1101C39.6036 35.5644 40.1272 35.9233 41.2603 35.9233C42.3933 35.9233 42.917 35.5644 43.5799 35.1101C44.333 34.5939 45.2703 33.9517 47.0142 33.9517C47.5587 33.9517 48.0001 34.3931 48.0001 34.9375C48.0001 35.482 47.5587 35.9234 47.0142 35.9234C45.8811 35.9234 45.3575 36.2823 44.6945 36.7367C43.9414 37.2528 43.0041 37.8951 41.2603 37.8951C39.5164 37.8951 38.5791 37.2527 37.826 36.7367C37.1631 36.2823 36.6394 35.9234 35.5063 35.9234C34.3734 35.9234 33.8498 36.2823 33.1868 36.7366Z" fill="white"/>
<path d="M37.8259 36.7367C38.579 37.2528 39.5163 37.8951 41.2602 37.8951C43.0041 37.8951 43.9414 37.2527 44.6944 36.7367C45.3574 36.2823 45.881 35.9234 47.0141 35.9234C47.5586 35.9234 48 35.482 48 34.9375C48 34.3931 47.5586 33.9517 47.0141 33.9517C45.2702 33.9517 44.3329 34.594 43.5798 35.1101C42.9169 35.5644 42.3932 35.9233 41.2602 35.9233C40.1271 35.9233 39.6036 35.5644 38.9406 35.1101C38.1874 34.5939 37.2501 33.9517 35.5062 33.9517C33.7625 33.9517 32.8251 34.594 32.0721 35.1101C31.4092 35.5644 30.8856 35.9233 29.7526 35.9233C28.6197 35.9233 28.0961 35.5644 27.4332 35.1102C26.6802 34.594 25.7429 33.9517 23.9992 33.9517C22.2555 33.9517 21.3182 34.594 20.5652 35.1102C19.9024 35.5645 19.3788 35.9233 18.246 35.9233C17.113 35.9233 16.5895 35.5644 15.9266 35.1102C15.1735 34.594 14.2363 33.9517 12.4925 33.9517C9.31058 33.9517 9.14432 35.9233 6.73902 35.9233C5.6061 35.9233 5.08254 35.5645 4.41982 35.1102C3.66679 34.594 2.72948 33.9517 0.985787 33.9517C0.44141 33.9518 0 34.3931 0 34.9375C0 35.482 0.44141 35.9234 0.985881 35.9234C3.33941 35.9234 3.59627 37.8951 6.73912 37.8951C8.48291 37.8951 9.42012 37.2527 10.1731 36.7366C10.8361 36.2822 11.3596 35.9234 12.4926 35.9234C13.6256 35.9234 14.1491 36.2822 14.8119 36.7366C15.5651 37.2527 16.5023 37.8951 18.2461 37.8951C19.9898 37.8951 20.927 37.2527 21.68 36.7366C22.3428 36.2822 22.8664 35.9234 23.9993 35.9234C25.1322 35.9234 25.6558 36.2823 26.3187 36.7366C27.0717 37.2527 28.009 37.8951 29.7527 37.8951C31.4965 37.8951 32.4338 37.2527 33.1868 36.7366C33.8498 36.2822 34.3733 35.9234 35.5063 35.9234C36.6394 35.9234 37.163 36.2823 37.8259 36.7367Z" fill="white"/>
</svg>
