<svg width="48" height="48" viewBox="0 0 48 48" fill="none" xmlns="http://www.w3.org/2000/svg">
<path d="M32.7648 3.05513C30.2192 1.05647 27.1635 0 23.9279 0C20.6923 0 17.6367 1.05647 15.0911 3.05513C14.4802 3.53475 14.3739 4.41872 14.8535 5.02959C15.333 5.64047 16.2171 5.74669 16.828 5.26725C18.8733 3.66131 21.3283 2.8125 23.9279 2.8125C26.5275 2.8125 28.9827 3.66131 31.0278 5.26725C31.2853 5.46947 31.5914 5.56753 31.8954 5.56753C32.3122 5.56753 32.725 5.38303 33.0024 5.02969C33.482 4.41881 33.3756 3.53484 32.7648 3.05513Z" fill="#AA8453"/>
<path d="M30.0183 8.11425C28.3798 6.50906 26.2169 5.625 23.928 5.625C21.6392 5.625 19.4764 6.50897 17.8377 8.11416C17.2829 8.65763 17.2737 9.54797 17.8173 10.1028C18.3607 10.6576 19.2511 10.6668 19.8059 10.1233C20.9156 9.03619 22.3795 8.4375 23.928 8.4375C25.4766 8.4375 26.9405 9.03619 28.0501 10.1233C28.3237 10.3914 28.6791 10.525 29.0341 10.525C29.3989 10.525 29.7633 10.384 30.0387 10.103C30.5822 9.54816 30.5731 8.65781 30.0183 8.11425Z" fill="#AA8453"/>
<path d="M24.6502 11.4506C24.071 11.1087 23.2961 11.2274 22.8592 11.743C22.4861 12.1833 22.4164 12.8328 22.6999 13.3374C22.9712 13.8202 23.5197 14.1135 24.0725 14.0548C24.6093 13.9977 25.0835 13.6186 25.2586 13.1081C25.4687 12.4951 25.2093 11.7806 24.6502 11.4506Z" fill="#AA8453"/>
<path d="M45.0437 16.8206H2.8125C1.26169 16.8206 0 18.0822 0 19.6331V21.9768H47.8563V19.6331C47.8562 18.0822 46.5945 16.8206 45.0437 16.8206Z" fill="#AA8453"/>
<path d="M16.8967 33.6212C15.5892 33.6212 14.5254 34.685 14.5254 35.9925C14.5254 37.3001 15.5892 38.3638 16.8967 38.3638C18.2042 38.3638 19.268 37.3001 19.268 35.9925C19.268 34.685 18.2042 33.6212 16.8967 33.6212Z" fill="#AA8453"/>
<path d="M0 24.7892V45.1875C0 46.7383 1.26169 48 2.8125 48H45.0438C46.5946 48 47.8563 46.7383 47.8563 45.1875V24.7892H0ZM34.7373 37.3987H21.8848C21.2702 39.5757 19.2674 41.1763 16.8965 41.1763C14.0381 41.1763 11.7127 38.8508 11.7127 35.9925C11.7127 33.1342 14.0381 30.8087 16.8965 30.8087C19.2674 30.8087 21.2703 32.4093 21.8848 34.5862H26.2159V33.3862C26.2159 32.6095 26.8455 31.9799 27.6221 31.9799C28.3988 31.9799 29.0284 32.6095 29.0284 33.3862V34.5862H31.8409V32.4487C31.8409 31.672 32.4705 31.0424 33.2471 31.0424C34.0238 31.0424 34.6534 31.672 34.6534 32.4487V34.5862H34.7373C35.5139 34.5862 36.1435 35.2159 36.1435 35.9925C36.1435 36.7691 35.5139 37.3987 34.7373 37.3987Z" fill="#AA8453"/>
</svg>
