<svg width="48" height="48" viewBox="0 0 48 48" fill="none" xmlns="http://www.w3.org/2000/svg">
<path d="M33.2091 30.75H19.3349L19.0911 31.725C18.6356 33.547 18.6356 35.453 19.0911 37.275L20.0849 41.25H32.3999L33.5069 36.2693C33.9115 34.451 33.8141 32.5569 33.2249 30.7898L33.2091 30.75ZM23.2499 33.75H20.2499V32.25H23.2499V33.75Z" fill="#AA8453"/>
<path d="M18 24.75H11.25C10.7078 24.751 10.1773 24.9075 9.7214 25.201C9.26554 25.4946 8.90349 25.9128 8.67825 26.406C8.481 26.8395 8.30325 27.282 8.13525 27.726L18 29.1353V24.75Z" fill="#AA8453"/>
<path d="M43.5 2.25H33C32.4033 2.25 31.831 2.48705 31.409 2.90901C30.9871 3.33097 30.75 3.90326 30.75 4.5V15C30.75 15.5967 30.9871 16.169 31.409 16.591C31.831 17.0129 32.4033 17.25 33 17.25H43.5C44.0967 17.25 44.669 17.0129 45.091 16.591C45.5129 16.169 45.75 15.5967 45.75 15V4.5C45.75 3.90326 45.5129 3.33097 45.091 2.90901C44.669 2.48705 44.0967 2.25 43.5 2.25ZM39.75 11.25H36V15.75H34.5V4.5C34.5 4.30109 34.579 4.11032 34.7197 3.96967C34.8603 3.82902 35.0511 3.75 35.25 3.75H39.75C40.7446 3.75 41.6984 4.14509 42.4017 4.84835C43.1049 5.55161 43.5 6.50544 43.5 7.5C43.5 8.49456 43.1049 9.44839 42.4017 10.1517C41.6984 10.8549 40.7446 11.25 39.75 11.25Z" fill="#AA8453"/>
<path d="M17.2501 34.5C17.2504 33.4424 17.3803 32.3888 17.6371 31.3628L17.8209 30.6248L5.2081 28.8225C4.98836 29.7045 4.82007 30.5985 4.7041 31.5H5.2501C5.84213 31.4996 6.42124 31.6731 6.91552 31.999C7.40979 32.3248 7.79745 32.7887 8.03035 33.333L9.5056 36.7755C10.6741 36.8908 11.7702 37.3941 12.6193 38.2051C13.4683 39.0161 14.0213 40.0881 14.1901 41.25H18.5401L17.6401 37.6373C17.3823 36.6114 17.2514 35.5578 17.2501 34.5Z" fill="#AA8453"/>
<path d="M34.6912 28.251C32.741 26.3036 30.6339 24.5201 28.3912 22.9185C27.3298 22.1572 26.0561 21.7485 24.7499 21.75H11.2499C10.276 21.7515 9.32293 22.0325 8.50407 22.5598C7.68521 23.0871 7.03498 23.8384 6.63066 24.7245C6.24149 25.5846 5.9034 26.4669 5.61816 27.3668L6.62016 27.5093C6.82941 26.9288 7.05666 26.3498 7.31316 25.7843C7.65807 25.0294 8.21233 24.3894 8.91014 23.9402C9.60796 23.491 10.42 23.2514 11.2499 23.25H24.7499C25.901 23.2479 27.0236 23.6076 27.9592 24.2783C30.0559 25.7788 32.0319 27.4411 33.8692 29.25H35.6894L34.6912 28.251Z" fill="#AA8453"/>
<path d="M7.91175 36.8648L6.65175 33.924C6.53425 33.6496 6.33877 33.4158 6.08958 33.2516C5.84039 33.0873 5.54846 32.9998 5.25 33H4.55625C4.5225 33.5183 4.5 34.0388 4.5 34.5623V36.75C4.5 36.9489 4.42098 37.1397 4.28033 37.2803C4.13968 37.421 3.94891 37.5 3.75 37.5C3.35218 37.5 2.97064 37.658 2.68934 37.9393C2.40804 38.2206 2.25 38.6022 2.25 39C2.25104 39.4609 2.41118 39.9072 2.70335 40.2636C2.99553 40.62 3.4018 40.8646 3.8535 40.956C4.05901 39.9534 4.55233 39.0324 5.2731 38.3058C5.99387 37.5791 6.91082 37.0784 7.91175 36.8648Z" fill="#AA8453"/>
<path d="M9 42.75C9.41421 42.75 9.75 42.4142 9.75 42C9.75 41.5858 9.41421 41.25 9 41.25C8.58579 41.25 8.25 41.5858 8.25 42C8.25 42.4142 8.58579 42.75 9 42.75Z" fill="#AA8453"/>
<path d="M9 38.25C8.25832 38.25 7.5333 38.4699 6.91661 38.882C6.29993 39.294 5.81928 39.8797 5.53545 40.5649C5.25162 41.2502 5.17736 42.0042 5.32206 42.7316C5.46675 43.459 5.8239 44.1272 6.34835 44.6517C6.8728 45.1761 7.54098 45.5333 8.26841 45.6779C8.99584 45.8226 9.74984 45.7484 10.4351 45.4645C11.1203 45.1807 11.706 44.7001 12.118 44.0834C12.5301 43.4667 12.75 42.7417 12.75 42C12.7488 41.0058 12.3533 40.0527 11.6503 39.3497C10.9473 38.6467 9.9942 38.2512 9 38.25ZM9 44.25C8.55499 44.25 8.11998 44.118 7.74997 43.8708C7.37996 43.6236 7.09157 43.2722 6.92127 42.861C6.75098 42.4499 6.70642 41.9975 6.79323 41.561C6.88005 41.1246 7.09434 40.7237 7.40901 40.409C7.72368 40.0943 8.12459 39.88 8.56105 39.7932C8.99751 39.7064 9.44991 39.751 9.86104 39.9213C10.2722 40.0916 10.6236 40.38 10.8708 40.75C11.118 41.12 11.25 41.555 11.25 42C11.25 42.5967 11.0129 43.169 10.591 43.591C10.169 44.0129 9.59674 44.25 9 44.25Z" fill="#AA8453"/>
<path d="M27.0878 25.5C26.4065 25.011 25.5886 24.7486 24.75 24.75H19.5V29.25H31.6987C30.241 27.9056 28.7011 26.6531 27.0878 25.5Z" fill="#AA8453"/>
<path d="M39 42.75C39.4142 42.75 39.75 42.4142 39.75 42C39.75 41.5858 39.4142 41.25 39 41.25C38.5858 41.25 38.25 41.5858 38.25 42C38.25 42.4142 38.5858 42.75 39 42.75Z" fill="#AA8453"/>
<path d="M45.246 36C44.8621 34.9613 44.2676 34.0133 43.5 33.2152V34.5C43.5 34.8978 43.658 35.2793 43.9393 35.5606C44.2206 35.8419 44.6022 36 45 36H45.246Z" fill="#AA8453"/>
<path d="M44.9999 37.5C44.2043 37.5 43.4412 37.1839 42.8786 36.6213C42.316 36.0587 41.9999 35.2956 41.9999 34.5V31.9943C40.7222 31.1816 39.2392 30.7499 37.7249 30.75H34.7714C35.3338 32.6497 35.4017 34.6615 34.9687 36.5947L34.2749 39.7335C34.7529 38.7321 35.5364 37.9083 36.5124 37.3806C37.4885 36.8529 38.6069 36.6485 39.7065 36.797C40.8061 36.9454 41.8303 37.4389 42.6315 38.2066C43.4328 38.9742 43.9697 39.9762 44.1652 41.0685C44.6322 40.8943 45.0346 40.581 45.318 40.1709C45.6014 39.7607 45.7522 39.2735 45.7499 38.775C45.747 38.3477 45.7099 37.9214 45.6389 37.5H44.9999Z" fill="#AA8453"/>
<path d="M39.75 5.25H36V9.75H39.75C40.3467 9.75 40.919 9.51295 41.341 9.09099C41.7629 8.66903 42 8.09674 42 7.5C42 6.90326 41.7629 6.33097 41.341 5.90901C40.919 5.48705 40.3467 5.25 39.75 5.25Z" fill="#AA8453"/>
<path d="M39 29.3438V18.75H37.5V28.9387L37.8113 29.25C38.2091 29.2565 38.6061 29.2878 39 29.3438Z" fill="#AA8453"/>
<path d="M39 38.25C38.2583 38.25 37.5333 38.4699 36.9166 38.882C36.2999 39.294 35.8193 39.8797 35.5355 40.5649C35.2516 41.2502 35.1774 42.0042 35.3221 42.7316C35.4668 43.459 35.8239 44.1272 36.3484 44.6517C36.8728 45.1761 37.541 45.5333 38.2684 45.6779C38.9958 45.8226 39.7498 45.7484 40.4351 45.4645C41.1203 45.1807 41.706 44.7001 42.118 44.0834C42.5301 43.4667 42.75 42.7417 42.75 42C42.7488 41.0058 42.3533 40.0527 41.6503 39.3497C40.9473 38.6467 39.9942 38.2512 39 38.25ZM39 44.25C38.555 44.25 38.12 44.118 37.75 43.8708C37.38 43.6236 37.0916 43.2722 36.9213 42.861C36.751 42.4499 36.7064 41.9975 36.7932 41.561C36.8801 41.1246 37.0943 40.7237 37.409 40.409C37.7237 40.0943 38.1246 39.88 38.561 39.7932C38.9975 39.7064 39.4499 39.751 39.861 39.9213C40.2722 40.0916 40.6236 40.38 40.8708 40.75C41.118 41.12 41.25 41.555 41.25 42C41.25 42.5967 41.0129 43.169 40.591 43.591C40.169 44.0129 39.5967 44.25 39 44.25Z" fill="#AA8453"/>
</svg>
