<svg width="48" height="48" viewBox="0 0 48 48" fill="none" xmlns="http://www.w3.org/2000/svg">
<path d="M21.0228 19.5654C20.4735 20.1147 20.4735 21.0047 21.0228 21.554C21.5721 22.1032 22.4621 22.1032 23.0113 21.554C23.1665 21.4001 23.5002 21.1406 24.0001 21.1406C24.5 21.1406 24.8337 21.4002 24.9889 21.554C25.5382 22.1032 26.4281 22.1033 26.9774 21.554C27.5267 21.0047 27.5267 20.1147 26.9774 19.5654C26.516 19.1027 25.5148 18.3281 24.0001 18.3281C22.4854 18.3281 21.4842 19.1027 21.0228 19.5654Z" fill="#AA8453"/>
<path d="M24 1.45312C18.3668 1.45312 13.0686 3.65044 9.08335 7.63847C8.53407 8.18775 8.53407 9.07903 9.08335 9.627C9.63263 10.1763 10.5226 10.1763 11.0719 9.627C14.527 6.16903 19.118 4.26562 24 4.26562C28.882 4.26562 33.473 6.16903 36.9281 9.627C37.4774 10.1763 38.3673 10.1764 38.9167 9.627C39.4659 9.07903 39.4659 8.18775 38.9167 7.63847C34.9314 3.65044 29.6333 1.45312 24 1.45312Z" fill="#AA8453"/>
<path d="M34.9371 13.6027C35.4864 13.0547 35.4864 12.1634 34.9371 11.6141C32.0147 8.68903 28.1311 7.07812 24.0002 7.07812C19.8693 7.07812 15.9857 8.68903 13.0633 11.6141C12.514 12.1634 12.514 13.0547 13.0633 13.6027C13.6126 14.1519 14.5026 14.1519 15.0519 13.6027C17.4441 11.209 20.6205 9.89062 24.0002 9.89062C27.3799 9.89062 30.5563 11.209 32.9485 13.6027C33.4978 14.1519 34.3878 14.1519 34.9371 13.6027Z" fill="#AA8453"/>
<path d="M30.957 17.5783C31.5063 17.0303 31.5063 16.1391 30.957 15.5898C27.2381 11.8682 20.7617 11.8682 17.0428 15.5898C16.4935 16.1391 16.4935 17.0303 17.0428 17.5783C17.5921 18.1276 18.4821 18.1276 19.0314 17.5783C21.69 14.9168 26.3098 14.9168 28.9685 17.5783C29.5178 18.1276 30.4076 18.1276 30.957 17.5783Z" fill="#AA8453"/>
<path d="M43.7812 26.7656H4.21875C1.89244 26.7656 0 28.6581 0 30.9844V39.4219C0 41.7482 1.89244 43.6406 4.21875 43.6406H5.625V45.1406C5.625 45.9179 6.25397 46.5469 7.03125 46.5469C7.80853 46.5469 8.4375 45.9179 8.4375 45.1406V43.6406H39.5625V45.1406C39.5625 45.9179 40.1915 46.5469 40.9688 46.5469C41.746 46.5469 42.375 45.9179 42.375 45.1406V43.6406H43.7812C46.1076 43.6406 48 41.7482 48 39.4219V30.9844C48 28.6581 46.1076 26.7656 43.7812 26.7656ZM31.125 36.6094C31.125 37.3867 30.496 38.0156 29.7188 38.0156C28.9415 38.0156 28.3125 37.3867 28.3125 36.6094V33.7969C28.3125 33.0196 28.9415 32.3906 29.7188 32.3906C30.496 32.3906 31.125 33.0196 31.125 33.7969V36.6094ZM36.75 36.6094C36.75 37.3867 36.121 38.0156 35.3438 38.0156C34.5665 38.0156 33.9375 37.3867 33.9375 36.6094V33.7969C33.9375 33.0196 34.5665 32.3906 35.3438 32.3906C36.121 32.3906 36.75 33.0196 36.75 33.7969V36.6094ZM42.375 36.6094C42.375 37.3867 41.746 38.0156 40.9688 38.0156C40.1915 38.0156 39.5625 37.3867 39.5625 36.6094V33.7969C39.5625 33.0196 40.1915 32.3906 40.9688 32.3906C41.746 32.3906 42.375 33.0196 42.375 33.7969V36.6094Z" fill="#AA8453"/>
<path d="M0.946811 7.1921C0.232623 7.49829 -0.0983141 8.32507 0.207967 9.03776L6.60031 23.9531H9.65919L2.79247 7.93095C2.48628 7.21404 1.65125 6.8817 0.946811 7.1921Z" fill="#AA8453"/>
<path d="M41.4001 23.9531L47.7924 9.0378C48.0987 8.32502 47.7677 7.49833 47.0536 7.19205C46.3436 6.88446 45.5141 7.21539 45.2078 7.93089L38.3413 23.9531H41.4001Z" fill="#AA8453"/>
</svg>
