<svg width="48" height="48" viewBox="0 0 48 48" fill="none" xmlns="http://www.w3.org/2000/svg">
<path d="M23.69 44.8407C24.4853 44.8407 25.13 44.196 25.13 43.4007C25.13 42.6054 24.4853 41.9607 23.69 41.9607C22.8947 41.9607 22.25 42.6054 22.25 43.4007C22.25 44.196 22.8947 44.8407 23.69 44.8407Z" fill="#AA8453"/>
<path d="M43.8702 44.8407C44.6655 44.8407 45.3102 44.196 45.3102 43.4007C45.3102 42.6054 44.6655 41.9607 43.8702 41.9607C43.0749 41.9607 42.4302 42.6054 42.4302 43.4007C42.4302 44.196 43.0749 44.8407 43.8702 44.8407Z" fill="#AA8453"/>
<path d="M42.7147 31.8203H25.0411C24.5803 31.8203 24.1963 32.1947 24.1963 32.6651V37.6571C24.1963 38.1276 24.5803 38.5019 25.0411 38.5019H42.7147C43.1851 38.5019 43.5595 38.1275 43.5595 37.6571V32.6651C43.5595 32.1947 43.1851 31.8203 42.7147 31.8203ZM36.8011 35.7467C36.8011 36.5435 36.1579 37.1867 35.3611 37.1867H32.3947C31.6075 37.1867 30.9547 36.5435 30.9547 35.7467V34.3067H31.6747V35.7467C31.6747 36.1403 32.0011 36.4667 32.3947 36.4667H35.3611C35.7547 36.4667 36.0811 36.1403 36.0811 35.7467V34.3067H36.8011V35.7467ZM42.4651 33.5867H40.7275V34.7291H39.8923V33.5867H27.8731V34.7291H27.0284V33.5867H25.3004V33.1355H42.4652L42.4651 33.5867Z" fill="#AA8453"/>
<path d="M24.1963 24.9451V29.9371C24.1963 30.4076 24.5803 30.7819 25.0411 30.7819H42.7147C43.1851 30.7819 43.5595 30.4075 43.5595 29.9371V24.9451C43.5595 24.4747 43.1851 24.1003 42.7147 24.1003H25.0411C24.5802 24.1003 24.1963 24.4747 24.1963 24.9451ZM36.8011 28.0267C36.8011 28.8235 36.1579 29.4667 35.3611 29.4667H32.3947C31.6075 29.4667 30.9547 28.8235 30.9547 28.0267V26.5867H31.6747V28.0267C31.6747 28.4203 32.0011 28.7467 32.3947 28.7467H35.3611C35.7547 28.7467 36.0811 28.4203 36.0811 28.0267V26.5867H36.8011V28.0267ZM25.3002 25.4155H42.465V25.8667H40.7274V27.0091H39.8922V25.8667H27.873V27.0091H27.0283V25.8667H25.3003L25.3002 25.4155Z" fill="#AA8453"/>
<path d="M32.0898 23.0803H40.8498C41.0542 23.0803 41.2198 22.9147 41.2198 22.7103V19.3503C41.2198 19.146 41.0542 18.9803 40.8498 18.9803H32.0898C31.8856 18.9803 31.7199 19.1459 31.7199 19.3503V20.5003H29.8599V21.5603H31.7199V22.7103C31.72 22.9147 31.8856 23.0803 32.0898 23.0803Z" fill="#AA8453"/>
<path d="M45.4751 39.2795V18.2171C45.4751 12.3324 41.0111 7.47483 35.2511 6.72594V5.66034H32.3135V6.71634C26.4864 7.39794 21.9551 12.2939 21.9551 18.2171V20.2331C22.1375 20.1947 22.3103 20.1755 22.5023 20.1755C22.6367 20.1755 22.7807 20.1851 22.9151 20.2139V18.2171C22.9151 12.3419 27.7631 7.57074 33.7151 7.57074C39.6767 7.57074 44.5151 12.3419 44.5151 18.2171V39.2795H22.9151V25.9163C22.5887 25.9835 22.2719 26.0507 21.9551 26.0987V39.2795H20.5151V40.9403H47.0399V39.2795H45.4751Z" fill="#AA8453"/>
<path d="M33.7795 4.66081C34.5085 4.66081 35.0995 4.06983 35.0995 3.34081C35.0995 2.6118 34.5085 2.02081 33.7795 2.02081C33.0505 2.02081 32.4595 2.6118 32.4595 3.34081C32.4595 4.06983 33.0505 4.66081 33.7795 4.66081Z" fill="#AA8453"/>
<path d="M11.0493 24.7547C11.0397 24.7547 11.0397 24.7451 11.0301 24.7451C8.3997 23.0075 7.8237 20.6651 7.7373 20.2139C7.4301 18.6491 8.4477 17.1419 10.0125 16.8347C10.1949 16.7963 10.3773 16.777 10.5597 16.777C11.9037 16.777 13.0845 17.7275 13.3725 19.0426C13.3725 19.0426 13.4013 19.1098 13.4589 19.2058C13.4013 18.2746 12.9501 17.3722 12.1533 16.7578C10.6845 15.625 8.5821 15.8938 7.4397 17.3626C2.1501 24.217 4.3965 31.1962 4.4925 31.4938C4.72472 32.1857 5.16383 32.7519 5.7165 33.1497C5.29544 36.7345 2.546 41.2672 1.33189 42.9241C0.705685 43.7791 0.889909 44.9805 1.74392 45.6077C2.6013 46.2364 3.80236 46.0474 4.42655 45.1975C4.97077 44.4574 8.54639 39.4432 9.42153 34.3873C10.6178 36.2744 11.8347 39.289 12.3095 44.0126C12.4155 45.0673 13.3501 45.8403 14.4118 45.7306C15.4665 45.6247 16.2362 44.6835 16.1297 43.6283C15.4069 36.434 13.0365 32.4078 11.0199 30.2273C10.9639 29.2671 10.1618 27.6773 11.0493 24.7547Z" fill="#AA8453"/>
<path d="M24.3757 22.6521C24.1502 21.6157 23.1232 20.9576 22.0914 21.1845C13.631 23.0266 12.5004 19.4834 12.4347 19.2471C12.2111 18.2328 11.2183 17.5783 10.1931 17.7757C9.15199 17.9787 8.47231 18.9865 8.67487 20.0271C8.72124 20.2643 9.19375 22.3873 11.5601 23.945C14.743 26.0397 19.1728 25.75 22.908 24.9363C23.9444 24.7108 24.6012 23.6881 24.3757 22.6521Z" fill="#AA8453"/>
<path d="M13.4401 14.3002C15.5609 14.3002 17.2801 12.581 17.2801 10.4602C17.2801 8.3394 15.5609 6.62018 13.4401 6.62018C11.3193 6.62018 9.6001 8.3394 9.6001 10.4602C9.6001 12.581 11.3193 14.3002 13.4401 14.3002Z" fill="#AA8453"/>
</svg>
