<svg width="48" height="48" viewBox="0 0 48 48" fill="none" xmlns="http://www.w3.org/2000/svg">
<path d="M24.8001 12.8H2.4001C1.95827 12.8 1.6001 13.1582 1.6001 13.6V14.4C1.6001 14.8419 1.95827 15.2 2.4001 15.2H24.8001C25.2419 15.2 25.6001 14.8419 25.6001 14.4V13.6C25.6001 13.1582 25.2419 12.8 24.8001 12.8Z" fill="#AA8453"/>
<path d="M22.9263 10.0424C22.8604 9.90916 22.7584 9.7971 22.632 9.7189C22.5056 9.6407 22.3598 9.5995 22.2111 9.59998H4.98874C4.84009 9.5995 4.69429 9.6407 4.56787 9.7189C4.44145 9.7971 4.33948 9.90916 4.27354 10.0424L3.69434 11.2H23.5055L22.9263 10.0424Z" fill="#AA8453"/>
<path d="M7.02416 46.4001H18.181C17.4964 45.8015 16.9477 45.0637 16.5716 44.2358C16.1955 43.408 16.0007 42.5093 16.0002 41.6001V40.8001C16.0014 40.4505 16.0794 40.1055 16.2287 39.7895C16.378 39.4735 16.5949 39.1941 16.8642 38.9713C16.3075 38.3822 15.9982 37.602 16.0002 36.7916C16.0021 35.9811 16.3151 35.2024 16.8746 34.6161C16.6301 34.4198 16.4276 34.1765 16.2789 33.9006C16.1302 33.6247 16.0384 33.3217 16.009 33.0097C15.9813 32.6823 16.0219 32.3527 16.1284 32.0419C16.2349 31.731 16.4048 31.4457 16.6274 31.2041C16.2257 30.7662 16.002 30.1942 16.0002 29.6C16.0041 27.31 16.7633 25.0851 18.16 23.2702C19.5567 21.4554 21.513 20.1519 23.7258 19.5616L23.937 16.8H3.26416L5.42976 44.9225C5.46221 45.3237 5.64403 45.6981 5.93926 45.9717C6.2345 46.2453 6.62165 46.3982 7.02416 46.4001Z" fill="#AA8453"/>
<path d="M46.4001 40.8C46.4001 40.5878 46.3158 40.3843 46.1658 40.2343C46.0158 40.0843 45.8123 40 45.6001 40H18.4001C18.1879 40 17.9844 40.0843 17.8344 40.2343C17.6844 40.3843 17.6001 40.5878 17.6001 40.8V41.6C17.6014 42.8726 18.1075 44.0928 19.0074 44.9927C19.9073 45.8926 21.1274 46.3987 22.4001 46.4H41.6001C42.8727 46.3987 44.0929 45.8926 44.9928 44.9927C45.8927 44.0928 46.3988 42.8726 46.4001 41.6V40.8Z" fill="#AA8453"/>
<path d="M14.4001 8.00002V3.68002C14.4 3.50627 14.3433 3.33727 14.2387 3.19857C14.1341 3.05987 13.9871 2.959 13.8201 2.91122L9.28007 1.61202C9.20392 1.59136 9.12273 1.60119 9.05372 1.63943C8.98471 1.67767 8.93332 1.74131 8.91047 1.81682L8.63527 2.78082C8.61378 2.85709 8.62334 2.93877 8.66186 3.00801C8.70038 3.07726 8.76473 3.12846 8.84087 3.15042L12.2241 4.11682C12.3904 4.16533 12.5364 4.2665 12.6403 4.40514C12.7442 4.54378 12.8002 4.71239 12.8001 4.88562V8.00002H14.4001Z" fill="#AA8453"/>
<path d="M44.8001 35.2H42.3345C42.0404 35.2004 41.7551 35.3002 41.5249 35.4832L39.4033 37.1776C39.0623 37.4516 38.638 37.601 38.2005 37.601C37.763 37.601 37.3387 37.4516 36.9977 37.1776L34.8753 35.4824C34.645 35.2997 34.3597 35.2002 34.0657 35.2H19.2001C18.7758 35.2 18.3688 35.3685 18.0687 35.6686C17.7687 35.9686 17.6001 36.3756 17.6001 36.8C17.6001 37.2243 17.7687 37.6313 18.0687 37.9313C18.3688 38.2314 18.7758 38.4 19.2001 38.4H44.8001C45.2244 38.4 45.6314 38.2314 45.9315 37.9313C46.2315 37.6313 46.4001 37.2243 46.4001 36.8C46.4001 36.3756 46.2315 35.9686 45.9315 35.6686C45.6314 35.3685 45.2244 35.2 44.8001 35.2Z" fill="#AA8453"/>
<path d="M37.6001 20.8H26.4001C24.067 20.8028 21.8303 21.7308 20.1806 23.3806C18.5309 25.0303 17.6029 27.267 17.6001 29.6C17.6001 29.8122 17.6844 30.0157 17.8344 30.1657C17.9844 30.3158 18.1879 30.4001 18.4001 30.4001H45.6001C45.8123 30.4001 46.0158 30.3158 46.1658 30.1657C46.3158 30.0157 46.4001 29.8122 46.4001 29.6C46.3973 27.267 45.4693 25.0303 43.8196 23.3806C42.1699 21.7308 39.9332 20.8028 37.6001 20.8ZM26.4001 27.2H25.6001C25.3879 27.2 25.1844 27.1158 25.0344 26.9657C24.8844 26.8157 24.8001 26.6122 24.8001 26.4C24.8001 26.1879 24.8844 25.9844 25.0344 25.8344C25.1844 25.6843 25.3879 25.6 25.6001 25.6H26.4001C26.6123 25.6 26.8158 25.6843 26.9658 25.8344C27.1158 25.9844 27.2001 26.1879 27.2001 26.4C27.2001 26.6122 27.1158 26.8157 26.9658 26.9657C26.8158 27.1158 26.6123 27.2 26.4001 27.2ZM28.8001 24H28.0001C27.7879 24 27.5844 23.9158 27.4344 23.7657C27.2844 23.6157 27.2001 23.4122 27.2001 23.2C27.2001 22.9879 27.2844 22.7844 27.4344 22.6344C27.5844 22.4843 27.7879 22.4 28.0001 22.4H28.8001C29.0123 22.4 29.2158 22.4843 29.3658 22.6344C29.5158 22.7844 29.6001 22.9879 29.6001 23.2C29.6001 23.4122 29.5158 23.6157 29.3658 23.7657C29.2158 23.9158 29.0123 24 28.8001 24ZM33.6001 26.4H32.8001C32.5879 26.4 32.3844 26.3158 32.2344 26.1657C32.0844 26.0157 32.0001 25.8122 32.0001 25.6C32.0001 25.3879 32.0844 25.1844 32.2344 25.0344C32.3844 24.8843 32.5879 24.8 32.8001 24.8H33.6001C33.8123 24.8 34.0158 24.8843 34.1658 25.0344C34.3158 25.1844 34.4001 25.3879 34.4001 25.6C34.4001 25.8122 34.3158 26.0157 34.1658 26.1657C34.0158 26.3158 33.8123 26.4 33.6001 26.4Z" fill="#AA8453"/>
<path d="M18.4 32C18.2968 31.9992 18.1945 32.0191 18.0992 32.0585C18.0038 32.098 17.9173 32.1561 17.8448 32.2296C17.7584 32.3117 17.6919 32.4125 17.6503 32.5242C17.6087 32.636 17.5932 32.7557 17.6048 32.8744C17.6388 33.0823 17.7474 33.2707 17.9102 33.4042C18.0731 33.5378 18.2791 33.6074 18.4896 33.6H34.0656C34.7226 33.601 35.3598 33.8243 35.8736 34.2336L37.9952 35.9272C38.0535 35.9737 38.1259 35.9991 38.2004 35.9991C38.275 35.9991 38.3474 35.9737 38.4056 35.9272L40.5264 34.2344C41.0402 33.8248 41.6774 33.6012 42.3344 33.6H45.6C45.7031 33.6009 45.8054 33.5811 45.9006 33.5416C45.9959 33.5022 46.0822 33.4439 46.1544 33.3704C46.2402 33.2888 46.3064 33.1888 46.3479 33.0779C46.3895 32.9671 46.4054 32.8483 46.3944 32.7304C46.3614 32.5218 46.2533 32.3325 46.0906 32.198C45.9278 32.0635 45.7215 31.9931 45.5104 32H18.4Z" fill="#AA8453"/>
</svg>
