<svg width="48" height="48" viewBox="0 0 48 48" fill="none" xmlns="http://www.w3.org/2000/svg">
<g clip-path="url(#clip0_161_1810)">
<path d="M16.7629 34.0137C17.3677 34.4282 17.5715 34.5678 18.2463 34.5678C18.921 34.5678 19.1247 34.4282 19.7295 34.0137C20.553 33.4493 21.7976 32.5962 23.9995 32.5962C26.2015 32.5962 27.446 33.4492 28.2697 34.0137C28.8744 34.4282 29.0782 34.5678 29.753 34.5678C30.428 34.5678 30.6317 34.4282 31.2365 34.0136C31.8535 33.5908 32.7067 33.006 34.0218 32.7392L30.1564 25.5958L33.3909 16.7521L41.5895 9.71722C42.7011 8.76341 42.829 7.08911 41.8752 5.97757C40.9213 4.86603 39.2471 4.73812 38.1355 5.69193L29.4112 13.178C29.0666 13.4738 28.8036 13.8532 28.6476 14.2797L24.6891 25.1023L24.669 25.1619L10.4458 32.8797C11.019 32.7092 11.6924 32.5962 12.4929 32.5962C14.6948 32.5962 15.9394 33.4493 16.7629 34.0137Z" fill="#AA8453"/>
<path d="M38.5715 29.9247C41.4995 29.5948 43.6056 26.9538 43.2757 24.0258C42.9458 21.0978 40.3048 18.9917 37.3768 19.3216C34.4488 19.6515 32.3426 22.2925 32.6726 25.2205C33.0025 28.1485 35.6435 30.2547 38.5715 29.9247Z" fill="#AA8453"/>
<path d="M3.30509 36.8599C4.05812 37.376 4.99542 38.0184 6.73912 38.0184C8.48291 38.0184 9.42012 37.376 10.1731 36.8599C10.8361 36.4055 11.3596 36.0467 12.4926 36.0467C13.6256 36.0467 14.1491 36.4055 14.8119 36.8599C15.5651 37.376 16.5023 38.0184 18.2461 38.0184C19.9898 38.0184 20.927 37.376 21.68 36.8599C22.3428 36.4055 22.8664 36.0467 23.9993 36.0467C25.1322 36.0467 25.6558 36.4056 26.3187 36.8599C27.0717 37.376 28.009 38.0184 29.7527 38.0184C31.4965 38.0184 32.4338 37.376 33.1868 36.8599C33.8498 36.4055 34.3733 36.0467 35.5063 36.0467C36.6394 36.0467 37.163 36.4056 37.826 36.86C38.5791 37.3761 39.5164 38.0184 41.2603 38.0184C43.0042 38.0184 43.9415 37.376 44.6945 36.86C45.3574 36.4056 45.8811 36.0467 47.0142 36.0467C47.5587 36.0467 48.0001 35.6053 48.0001 35.0608C48.0001 34.5164 47.5587 34.075 47.0142 34.075C45.2703 34.075 44.333 34.7173 43.5799 35.2334C42.917 35.6877 42.3933 36.0466 41.2603 36.0466C40.1272 36.0466 39.6036 35.6877 38.9406 35.2334C38.1875 34.7172 37.2502 34.075 35.5063 34.075C33.7625 34.075 32.8252 34.7173 32.0722 35.2334C31.4093 35.6877 30.8857 36.0466 29.7527 36.0466C28.6198 36.0466 28.0962 35.6877 27.4333 35.2335C26.6803 34.7173 25.743 34.075 23.9993 34.075C22.2556 34.075 21.3183 34.7173 20.5653 35.2335C19.9024 35.6878 19.3789 36.0466 18.2461 36.0466C17.1131 36.0466 16.5896 35.6877 15.9267 35.2335C15.1736 34.7173 14.2364 34.075 12.4926 34.075C10.7488 34.075 9.81154 34.7173 9.05851 35.2335C8.3956 35.6878 7.87204 36.0466 6.73912 36.0466C5.60619 36.0466 5.08264 35.6878 4.41991 35.2335C3.66688 34.7173 2.72958 34.075 0.985881 34.075C0.44141 34.075 0 34.5164 0 35.0608C0 35.6053 0.44141 36.0467 0.985881 36.0467C2.1188 36.0466 2.64227 36.4055 3.30509 36.8599Z" fill="#AA8453"/>
<path d="M33.1868 41.7891C32.4338 42.3052 31.4965 42.9476 29.7527 42.9476C28.0089 42.9476 27.0717 42.3052 26.3187 41.7891C25.6558 41.3347 25.1322 40.9759 23.9993 40.9759C22.8664 40.9759 22.3428 41.3347 21.68 41.7891C20.927 42.3052 19.9898 42.9476 18.2461 42.9476C16.5023 42.9476 15.5651 42.3052 14.8119 41.7891C14.1491 41.3347 13.6256 40.9759 12.4926 40.9759C11.3597 40.9759 10.8361 41.3348 10.1731 41.7891C9.42012 42.3052 8.48281 42.9476 6.73912 42.9476C3.55735 42.9476 3.39108 40.9759 0.985881 40.9759C0.44141 40.9759 0 40.5345 0 39.99C0 39.4456 0.44141 39.0042 0.985881 39.0042C4.16765 39.0042 4.33392 40.9758 6.73912 40.9758C9.09274 40.9758 9.3496 39.0042 12.4926 39.0042C14.2364 39.0042 15.1736 39.6465 15.9267 40.1627C16.5896 40.617 17.1131 40.9758 18.2461 40.9758C19.3789 40.9758 19.9024 40.617 20.5653 40.1627C21.3183 39.6465 22.2555 39.0042 23.9993 39.0042C25.7431 39.0042 26.6803 39.6465 27.4333 40.1627C28.0962 40.617 28.6198 40.9758 29.7527 40.9758C30.8857 40.9758 31.4093 40.6169 32.0722 40.1626C32.8252 39.6464 33.7625 39.0042 35.5063 39.0042C37.2502 39.0042 38.1875 39.6465 38.9406 40.1626C39.6036 40.6169 40.1272 40.9758 41.2603 40.9758C42.3933 40.9758 42.917 40.6169 43.5799 40.1626C44.333 39.6464 45.2703 39.0042 47.0142 39.0042C47.5587 39.0042 48.0001 39.4456 48.0001 39.99C48.0001 40.5345 47.5587 40.9759 47.0142 40.9759C45.8811 40.9759 45.3575 41.3348 44.6945 41.7891C43.9414 42.3053 43.0041 42.9476 41.2603 42.9476C39.5164 42.9476 38.5791 42.3052 37.826 41.7891C37.1631 41.3348 36.6394 40.9759 35.5063 40.9759C34.3734 40.9759 33.8498 41.3348 33.1868 41.7891Z" fill="#AA8453"/>
<path d="M37.8259 41.7891C38.579 42.3053 39.5163 42.9476 41.2602 42.9476C43.0041 42.9476 43.9414 42.3052 44.6944 41.7891C45.3574 41.3348 45.881 40.9759 47.0141 40.9759C47.5586 40.9759 48 40.5345 48 39.99C48 39.4456 47.5586 39.0042 47.0141 39.0042C45.2702 39.0042 44.3329 39.6465 43.5798 40.1626C42.9169 40.6169 42.3932 40.9758 41.2602 40.9758C40.1271 40.9758 39.6036 40.6169 38.9406 40.1626C38.1874 39.6464 37.2501 39.0042 35.5062 39.0042C33.7625 39.0042 32.8251 39.6465 32.0721 40.1626C31.4092 40.6169 30.8856 40.9758 29.7526 40.9758C28.6197 40.9758 28.0961 40.6169 27.4332 40.1627C26.6802 39.6465 25.7429 39.0042 23.9992 39.0042C22.2555 39.0042 21.3182 39.6465 20.5652 40.1627C19.9024 40.617 19.3788 40.9758 18.246 40.9758C17.113 40.9758 16.5895 40.6169 15.9266 40.1627C15.1735 39.6465 14.2363 39.0042 12.4925 39.0042C9.31058 39.0042 9.14432 40.9758 6.73902 40.9758C5.6061 40.9758 5.08254 40.617 4.41982 40.1627C3.66679 39.6465 2.72948 39.0042 0.985787 39.0042C0.44141 39.0042 0 39.4456 0 39.99C0 40.5345 0.44141 40.9759 0.985881 40.9759C3.33941 40.9759 3.59627 42.9476 6.73912 42.9476C8.48291 42.9476 9.42012 42.3052 10.1731 41.7891C10.8361 41.3347 11.3596 40.9759 12.4926 40.9759C13.6256 40.9759 14.1491 41.3347 14.8119 41.7891C15.5651 42.3052 16.5023 42.9476 18.2461 42.9476C19.9898 42.9476 20.927 42.3052 21.68 41.7891C22.3428 41.3347 22.8664 40.9759 23.9993 40.9759C25.1322 40.9759 25.6558 41.3348 26.3187 41.7891C27.0717 42.3052 28.009 42.9476 29.7527 42.9476C31.4965 42.9476 32.4338 42.3052 33.1868 41.7891C33.8498 41.3347 34.3733 40.9759 35.5063 40.9759C36.6394 40.9759 37.163 41.3348 37.8259 41.7891Z" fill="#AA8453"/>
</g>
<defs>
<clipPath id="clip0_161_1810">
<rect width="48" height="48" fill="white"/>
</clipPath>
</defs>
</svg>
